Coordinates
version=1
nRows=32
nColumns=12
inDegrees=yes

Units are S.I. units (second, meters, Newtons, ...)
Angles are in degrees

endheader
time	SC_y	SC_z	SC_x	AC_y	AC_z	AC_x	GH_y	GH_z	GH_yy	EL_x	PS_y
       0.0              -49.97          35.46          17.53          35.47          9.291          11.59         -123.6          64.02          96.19          103.8          116.6
   0.02036              -49.97          35.46          17.53          35.47          9.289          11.58         -123.6          64.02          96.19          103.8          116.6
   0.04071              -49.97          35.45          17.53          35.48          9.287          11.58         -123.6          64.02           96.2          103.8          116.6
   0.06107              -49.97          35.45          17.53          35.48          9.285          11.57         -123.6          64.03          96.21          103.8          116.6
   0.08143              -49.96          35.45          17.53          35.49          9.282          11.57         -123.5          64.03          96.22          103.7          116.6
    0.1018              -49.96          35.45          17.53          35.49           9.28          11.56         -123.5          64.03          96.23          103.7          116.6
    0.1221              -49.96          35.44          17.52           35.5          9.277          11.56         -123.5          64.03          96.25          103.7          116.6
    0.1425              -49.95          35.44          17.52           35.5          9.274          11.55         -123.4          64.03          96.26          103.7          116.6
    0.1629              -49.95          35.44          17.52          35.51          9.271          11.55         -123.4          64.03          96.27          103.7          116.6
    0.1832              -49.94          35.43          17.52          35.51          9.268          11.54         -123.4          64.03          96.29          103.7          116.6
    0.2036              -49.94          35.43          17.51          35.52          9.264          11.53         -123.3          64.03           96.3          103.6          116.6
    0.2239              -49.94          35.42          17.51          35.53          9.261          11.53         -123.3          64.03          96.32          103.6          116.6
    0.2443              -49.93          35.42          17.51          35.54          9.257          11.52         -123.2          64.04          96.33          103.6          116.6
    0.2646              -49.92          35.41          17.51          35.55          9.252          11.51         -123.2          64.04          96.35          103.6          116.6
     0.285              -49.92          35.41           17.5          35.56          9.248           11.5         -123.1          64.04          96.37          103.5          116.6
    0.3054              -49.91           35.4           17.5          35.57          9.242          11.49         -123.1          64.04           96.4          103.5          116.6
    0.3257              -49.91          35.39          17.49          35.58          9.237          11.48         -123.0          64.04          96.42          103.5          116.6
    0.3461               -49.9          35.39          17.49          35.59          9.231          11.47         -122.9          64.05          96.45          103.4          116.6
    0.3664              -49.89          35.38          17.48           35.6          9.224          11.45         -122.8          64.05          96.48          103.4          116.7
    0.3868              -49.88          35.37          17.48          35.62          9.217          11.44         -122.8          64.05          96.51          103.4          116.7
    0.4071              -49.87          35.36          17.47          35.63          9.209          11.42         -122.7          64.05          96.54          103.3          116.7
    0.4275              -49.86          35.35          17.47          35.65            9.2          11.41         -122.5          64.06          96.58          103.3          116.7
    0.4478              -49.85          35.34          17.46          35.67           9.19          11.39         -122.4          64.06          96.62          103.2          116.7
    0.4682              -49.83          35.33          17.45          35.69          9.179          11.36         -122.3          64.06          96.67          103.2          116.7
    0.4886              -49.82          35.31          17.44          35.71          9.167          11.34         -122.2          64.07          96.72          103.1          116.7
    0.5089               -49.8           35.3          17.43          35.74          9.154          11.31         -122.0          64.07          96.78          103.0          116.7
    0.5293              -49.78          35.28          17.42          35.77          9.139          11.28         -121.8          64.08          96.84          102.9          116.8
    0.5496              -49.76          35.26          17.41           35.8          9.122          11.25         -121.6          64.09          96.92          102.8          116.8
      0.57              -49.74          35.23           17.4          35.84          9.103          11.21         -121.4          64.09           97.0          102.7          116.8
    0.5903              -49.71          35.21          17.38          35.88          9.081          11.17         -121.1           64.1          97.09          102.6          116.8
    0.6107              -49.68          35.18          17.36          35.93          9.057          11.12         -120.8          64.11           97.2          102.5          116.9
    0.6311              -49.64          35.15          17.34          35.99          9.028          11.07         -120.5          64.12          97.32          102.3          116.9
